<?xml version="1.0" encoding="UTF-8" standalone="no"?>
<svg
   xmlns:dc="http://purl.org/dc/elements/1.1/"
   xmlns:cc="http://creativecommons.org/ns#"
   xmlns:rdf="http://www.w3.org/1999/02/22-rdf-syntax-ns#"
   xmlns:svg="http://www.w3.org/2000/svg"
   xmlns="http://www.w3.org/2000/svg"
   xmlns:sodipodi="http://sodipodi.sourceforge.net/DTD/sodipodi-0.dtd"
   xmlns:inkscape="http://www.inkscape.org/namespaces/inkscape"
   id="svg832"
   version="1.1"
   viewBox="0 0 900 900"
   height="900"
   width="900"
   sodipodi:docname="superformula.svg"
   inkscape:version="0.92.2 (5c3e80d, 2017-08-06)">
  <path
     style="font-family:none;mix-blend-mode:normal;fill:none;fill-rule:nonzero;stroke:#000000;stroke-width:0.89864457;stroke-linecap:butt;stroke-linejoin:miter;stroke-miterlimit:10;stroke-dasharray:none;stroke-dashoffset:0;stroke-opacity:0.6"
     d="M 753.92226,448.18905 742.70566,451.3979 691.38526,453.71143 664.03896,455.75759 646.05236,457.65411 632.84626,459.44649 622.50646,461.15986 614.06026,462.81008 606.94966,464.40795 600.82626,465.96128 595.45916,467.47598 590.68786,468.95659 586.39636,470.40679 582.49846,471.82952 578.92856,473.22726 575.63536,474.60205 572.57846,475.95565 569.72496,477.28959 567.04836,478.60514 564.52646,479.90345 562.14106,481.18553 559.87646,482.45226 557.71956,483.70443 555.65896,484.94275 553.68506,486.16786 551.78926,487.38034 549.96426,488.5807 548.20346,489.76942 546.50116,490.94692 544.85246,492.11361 543.25256,493.26984 541.69756,494.41595 540.18386,495.55226 538.70826,496.67904 537.26766,497.79656 535.85936,498.90505 534.48106,500.00476 533.13066,501.09589 531.80576,502.17863 530.50506,503.25317 529.22636,504.31968 527.96846,505.37833 526.72976,506.42927 525.50886,507.47263 524.30476,508.50855 523.11616,509.53716 521.94216,510.55857 520.78156,511.57289 519.63366,512.58023 518.49756,513.5807 517.37246,514.57436 516.25766,515.56133 515.15246,516.54167 514.05606,517.51548 512.96806,518.48283 511.88776,519.44377 510.81486,520.39839 509.74856,521.34676 508.68846,522.28893 507.63426,523.22495 506.58546,524.15488 505.54166,525.07877 504.50236,525.99667 503.46756,526.90863 502.43646,527.8147 501.40906,528.71492 500.38506,529.60933 499.36406,530.49797 498.34586,531.38087 497.33006,532.25807 496.31656,533.12961 495.30506,533.99552 494.29546,534.85582 493.28736,535.71057 492.28076,536.55977 491.27536,537.40347 490.27096,538.24167 489.26736,539.07441 488.26456,539.90172 487.26226,540.72362 486.26036,541.54014 485.25866,542.3513 484.25706,543.1571 483.25546,543.95759 482.25376,544.75277 481.25176,545.54268 480.24926,546.32732 479.24636,547.10673 478.24276,547.8809 477.23856,548.64987 476.23346,549.41365 475.22746,550.17227 474.22056,550.92572 473.21246,551.67404 472.20326,552.41725 471.19286,553.15535 470.18086,553.88837 469.16776,554.61631 468.15296,555.33919 467.13686,556.05704 466.11896,556.76987 465.09946,557.47769 464.07826,558.18052 463.05516,558.87839 462.03016,559.57128 461.00336,560.25924 459.97446,560.94229 458.94366,561.62042 457.91076,562.29366 456.87556,562.96202 455.83836,563.62554 454.79886,564.28422 453.75716,564.93808 452.71296,565.58714 451.66646,566.23143 450.61766,566.87095 449.56616,567.50573 448.51236,568.13579 447.45586,568.76116 446.39686,569.38184 445.33516,569.99787 444.27086,570.60927 443.20386,571.21606 442.13406,571.81827 441.06146,572.41593 439.98596,573.00905 438.90776,573.59767 437.82656,574.18182 436.74236,574.76151 435.65526,575.3368 434.56506,575.9077 433.47186,576.47424 432.37546,577.03646 431.27586,577.5944 430.17316,578.14809 429.06726,578.69756 427.95796,579.24286 426.84556,579.78402 425.72966,580.3211 424.61026,580.85412 423.48746,581.38314 422.36136,581.9082 421.23146,582.42935 420.09806,582.94665 418.96116,583.46015 417.82046,583.96988 416.67596,584.47593 415.52766,584.97834 414.37556,585.47718 413.21966,585.97251 412.05966,586.4644 410.89566,586.95292 409.72756,587.43814 408.55536,587.92015 407.37886,588.39902 406.19816,588.87483 405.01316,589.34767 403.82356,589.81762 402.62946,590.28479 401.43076,590.74927 400.22756,591.21118 399.01946,591.67061 397.80646,592.12768 396.58856,592.58251 395.36566,593.03522 394.13756,593.48594 392.90426,593.93482 391.66546,594.38199 390.42116,594.82761 389.17136,595.27183 387.91566,595.71482 386.65416,596.15676 385.38656,596.59782 384.11286,597.03822 382.83276,597.47813 381.54616,597.9178 380.25286,598.35743 378.95266,598.79727 377.64536,599.23757 376.33086,599.67859 375.00886,600.12062 373.67916,600.56398 372.34146,601.00894 370.99546,601.45588 369.64106,601.90513 368.27776,602.35708 366.90546,602.81212 365.52366,603.27069 364.13216,603.73324 362.73056,604.20026 361.31836,604.67225 359.89526,605.14979 358.46076,605.63346 357.01456,606.1239 355.55586,606.62178 354.0842,607.12785 352.59912,607.64287 351.09992,608.16772 349.58593,608.7033 348.05643,609.25061 346.51063,609.81071 344.94769,610.38478 343.36669,610.97406 341.76663,611.57996 340.14644,612.20395 338.50494,612.84771 336.84084,613.51302 335.15273,614.20188 333.43907,614.91647 331.69815,615.65921 329.92811,616.43279 328.12686,617.24018 326.29209,618.08473 324.42122,618.97016 322.51137,619.90067 320.55932,620.88102 318.56139,621.91658 316.51345,623.0135 314.41075,624.17883 312.24788,625.42069 310.01856,626.74852 307.71552,628.17335 305.33024,629.70816 302.85262,631.3684 300.27069,633.1726 297.56994,635.14321 294.73276,637.30776 291.73733,639.70055 288.55627,642.36484 285.1546,645.35633 281.48667,648.74813 277.49137,652.63879 273.08447,657.1651 268.14536,662.52416 262.49315,669.01363 255.8394,677.11151 247.68406,687.65223 237.04834,702.28078 221.60319,724.94027 193.93942,768.22827 185.55216,776.33775 188.38154,765.01943 212.03817,719.41791 223.93927,694.71228 231.29011,678.1872 236.34097,665.8541 240.02706,656.04285 242.82101,647.90316 244.99253,640.94624 246.70898,634.86659 248.08075,629.46124 249.18418,624.58882 250.07403,620.14715 250.79084,616.06012 251.36534,612.2696 251.82131,608.73025 252.17754,605.40603 252.44905,602.2679 252.64805,599.29211 252.78461,596.45897 252.86702,593.75206 252.90229,591.15751 252.89634,588.66347 252.85419,586.25983 252.78018,583.93779 252.67804,581.68975 252.55101,579.50905 252.40194,577.38981 252.2333,575.32688 252.04731,573.31565 251.84591,571.35202 251.63082,569.43233 251.4036,567.55328 251.16562,565.71191 250.91813,563.90554 250.66226,562.13173 250.39902,560.38827 250.12933,558.67314 249.85402,556.98451 249.57386,555.32068 249.28954,553.6801 249.00171,552.06135 248.71094,550.4631 248.41778,548.88416 248.1227,547.3234 247.82619,545.77976 247.52866,544.25229 247.23049,542.74008 246.93205,541.24232 246.63368,539.75819 246.33569,538.28699 246.03837,536.82802 245.742,535.38065 245.44682,533.94429 245.15308,532.51838 244.861,531.10239 244.57077,529.69582 244.28261,528.2982 243.99669,526.9091 243.71318,525.52811 243.43226,524.15484 243.15406,522.78891 242.87873,521.42998 242.60641,520.07771 242.33723,518.73181 242.07131,517.39195 241.80877,516.05789 241.5497,514.72933 241.29421,513.40605 241.04241,512.08777 240.79437,510.77429 240.55021,509.46538 240.30998,508.16085 240.07377,506.8605 239.84166,505.56412 239.61371,504.27155 239.39,502.98262 239.17059,501.69716 238.95554,500.41502 238.7449,499.13605 238.53874,497.86011 238.3371,496.58705 238.14003,495.31676 237.9476,494.0491 237.75982,492.78396 237.57676,491.52122 237.39845,490.26077 237.22494,489.00251 237.05625,487.74633 236.89244,486.49213 236.73351,485.23982 236.57952,483.98931 236.43049,482.74052 236.28645,481.49336 236.14743,480.24773 236.01345,479.00359 235.88455,477.76083 235.76074,476.5194 235.64203,475.27922 235.52847,474.04021 235.42007,472.80232 235.31684,471.56548 235.2188,470.32962 235.12597,469.09468 235.03836,467.86062 234.95599,466.62736 234.87888,465.39485 234.80703,464.16303 234.74046,462.93185 234.67917,461.70126 234.62319,460.4712 234.5725,459.24163 234.52714,458.01249 234.48709,456.78373 234.45238,455.5553 234.42298,454.32716 234.39894,453.09925 234.38023,451.87153 234.36687,450.64395 234.35884,449.41647 234.35617,448.18904 234.35884,446.96161 234.36687,445.73412 234.38023,444.50654 234.39894,443.27883 234.42298,442.05092 234.45238,440.82278 234.48709,439.59435 234.52714,438.36559 234.5725,437.13645 234.62319,435.90687 234.67917,434.67682 234.74046,433.44623 234.80703,432.21505 234.87888,430.98323 234.95599,429.75072 235.03836,428.51746 235.12597,427.28339 235.2188,426.04845 235.31684,424.8126 235.42007,423.57576 235.52847,422.33787 235.64203,421.09885 235.76074,419.85868 235.88455,418.61725 236.01345,417.37449 236.14743,416.13035 236.28645,414.88472 236.43049,413.63756 236.57952,412.38877 236.73351,411.13826 236.89244,409.88594 237.05625,408.63174 237.22494,407.37557 237.39845,406.1173 237.57676,404.85686 237.75982,403.59412 237.9476,402.32898 238.14003,401.06132 238.3371,399.79102 238.53874,398.51797 238.7449,397.24203 238.95554,395.96306 239.17059,394.68092 239.39,393.39546 239.61371,392.10653 239.84166,390.81396 240.07377,389.51758 240.30998,388.21723 240.55021,386.9127 240.79437,385.60379 241.04241,384.29031 241.29421,382.97203 241.5497,381.64874 241.80877,380.32019 242.07131,378.98612 242.33723,377.64627 242.60641,376.30037 242.87873,374.9481 243.15406,373.58917 243.43226,372.22324 243.71318,370.84997 243.99669,369.46898 244.28261,368.07988 244.57077,366.68226 244.861,365.27569 245.15308,363.8597 245.44682,362.43379 245.742,360.99743 246.03837,359.55006 246.33569,358.09109 246.63368,356.61989 246.93205,355.13576 247.23049,353.63799 247.52866,352.12579 247.82619,350.59832 248.1227,349.05468 248.41778,347.49392 248.71094,345.91497 249.00171,344.31673 249.28954,342.69798 249.57386,341.0574 249.85402,339.39357 250.12933,337.70494 250.39902,335.98981 250.66226,334.24635 250.91813,332.47254 251.16562,330.66616 251.4036,328.8248 251.63082,326.94575 251.84591,325.02606 252.04731,323.06243 252.2333,321.0512 252.40194,318.98826 252.55101,316.86903 252.67804,314.68833 252.78018,312.44029 252.85419,310.11826 252.89634,307.7146 252.90229,305.22057 252.86702,302.62601 252.78461,299.9191 252.64805,297.08597 252.44905,294.11017 252.17754,290.97204 251.82131,287.64783 251.36534,284.10847 250.79084,280.31796 250.07403,276.23093 249.18418,271.78927 248.08075,266.91684 246.70898,261.51148 244.99253,255.43184 242.82101,248.47492 240.02706,240.33523 236.34097,230.52398 231.29011,218.19088 223.93927,201.66581 212.03817,176.96017 188.38154,131.35865 185.55216,120.04033 193.93942,128.14981 221.60319,171.43781 237.04834,194.09729 247.68406,208.72585 255.8394,219.26657 262.49315,227.36444 268.14536,233.85392 273.08447,239.21298 277.49137,243.73928 281.48667,247.62995 285.1546,251.02176 288.55627,254.01323 291.73733,256.67753 294.73276,259.07032 297.56994,261.23487 300.27069,263.20547 302.85262,265.00968 305.33024,266.66992 307.71552,268.20473 310.01856,269.62956 312.24788,270.95739 314.41075,272.19925 316.51345,273.36458 318.56139,274.4615 320.55932,275.49706 322.51137,276.47741 324.42122,277.40792 326.29209,278.29335 328.12686,279.1379 329.92811,279.94529 331.69815,280.71887 333.43907,281.46161 335.15273,282.1762 336.84084,282.86506 338.50494,283.53037 340.14644,284.17413 341.76663,284.79812 343.36669,285.40401 344.94769,285.99331 346.51063,286.56736 348.05643,287.12747 349.58593,287.67477 351.09992,288.21036 352.59912,288.73521 354.0842,289.25023 355.55586,289.7563 357.01456,290.25419 358.46076,290.74462 359.89526,291.22828 361.31836,291.70583 362.73056,292.17782 364.13216,292.64484 365.52366,293.10739 366.90546,293.56596 368.27776,294.021 369.64106,294.47295 370.99546,294.9222 372.34146,295.36913 373.67916,295.81411 375.00886,296.25745 376.33086,296.69948 377.64536,297.14051 378.95266,297.58081 380.25286,298.02065 381.54616,298.46028 382.83276,298.89995 384.11286,299.33987 385.38656,299.78026 386.65416,300.22132 387.91566,300.66326 389.17136,301.10625 390.42116,301.55047 391.66546,301.99609 392.90426,302.44326 394.13756,302.89214 395.36566,303.34286 396.58856,303.79557 397.80646,304.2504 399.01946,304.70747 400.22756,305.1669 401.43076,305.62881 402.62946,306.09329 403.82356,306.56046 405.01316,307.03041 406.19816,307.50325 407.37886,307.97905 408.55536,308.45793 409.72756,308.93994 410.89566,309.42516 412.05966,309.91368 413.21966,310.40557 414.37556,310.9009 415.52766,311.39974 416.67596,311.90215 417.82046,312.4082 418.96116,312.91794 420.09806,313.43143 421.23146,313.94872 422.36136,314.46988 423.48746,314.99494 424.61026,315.52396 425.72966,316.05698 426.84556,316.59405 427.95796,317.13522 429.06726,317.68052 430.17316,318.22999 431.27586,318.78368 432.37546,319.34162 433.47186,319.90384 434.56506,320.47038 435.65526,321.04128 436.74236,321.61657 437.82656,322.19626 438.90776,322.78041 439.98596,323.36903 441.06146,323.96215 442.13406,324.55981 443.20386,325.16201 444.27086,325.7688 445.33516,326.3802 446.39686,326.99624 447.45586,327.61692 448.51236,328.24229 449.56616,328.87235 450.61766,329.50713 451.66646,330.14665 452.71296,330.79094 453.75716,331.44 454.79886,332.09386 455.83836,332.75254 456.87556,333.41606 457.91076,334.08443 458.94366,334.75766 459.97446,335.43579 461.00336,336.11884 462.03016,336.80679 463.05516,337.49969 464.07826,338.19756 465.09946,338.90038 466.11896,339.60821 467.13686,340.32104 468.15296,341.03889 469.16776,341.76177 470.18086,342.48971 471.19286,343.22273 472.20326,343.96083 473.21246,344.70404 474.22056,345.45236 475.22746,346.20582 476.23346,346.96443 477.23856,347.72821 478.24276,348.49718 479.24636,349.27136 480.24926,350.05076 481.25176,350.8354 482.25376,351.62531 483.25546,352.42049 484.25706,353.22098 485.25866,354.02678 486.26036,354.83794 487.26226,355.65446 488.26456,356.47636 489.26736,357.30366 490.27096,358.13641 491.27536,358.97461 492.28076,359.8183 493.28736,360.6675 494.29546,361.52225 495.30506,362.38256 496.31656,363.24847 497.33006,364.12001 498.34586,364.99721 499.36406,365.88011 500.38506,366.76874 501.40906,367.66316 502.43646,368.56337 503.46756,369.46945 504.50236,370.3814 505.54166,371.29931 506.58546,372.2232 507.63426,373.15313 508.68846,374.08915 509.74856,375.03132 510.81486,375.97969 511.88776,376.93431 512.96806,377.89526 514.05606,378.8626 515.15246,379.83641 516.25766,380.81675 517.37246,381.80372 518.49756,382.79738 519.63366,383.79785 520.78156,384.80519 521.94216,385.81951 523.11616,386.84092 524.30476,387.86953 525.50886,388.90544 526.72976,389.94881 527.96846,390.99974 529.22636,392.0584 530.50506,393.12491 531.80576,394.19945 533.13066,395.28219 534.48106,396.37332 535.85936,397.47302 537.26766,398.58152 538.70826,399.69904 540.18386,400.82581 541.69756,401.96212 543.25256,403.10824 544.85246,404.26446 546.50116,405.43116 548.20346,406.60866 549.96426,407.79738 551.78926,408.99774 553.68506,410.21022 555.65896,411.43533 557.71956,412.67365 559.87646,413.92583 562.14106,415.19255 564.52646,416.47463 567.04836,417.77294 569.72496,419.08849 572.57846,420.42242 575.63536,421.77603 578.92856,423.15082 582.49846,424.54856 586.39636,425.97129 590.68786,427.42149 595.45916,428.9021 600.82626,430.41679 606.94966,431.97013 614.06026,433.568 622.50646,435.21822 632.84626,436.93159 646.05236,438.72397 664.03896,440.62049 691.38526,442.66664 742.70566,444.98018 753.92226,448.18902"
     id="path4"
     inkscape:connector-curvature="0" />
</svg>
